<svg id="Layer_1" data-name="Layer 1" xmlns="http://www.w3.org/2000/svg" viewBox="0 0 580.39 580.39">
	<defs>
		<style>
			.cls-1,.cls-2{
				fill:none;stroke:#fff;stroke-miterlimit:10;
			}
			.cls-1{
				stroke-width:18px;filter: url(#drop-shadow-1);
			}
			.cls-2{
				stroke-width:20px;
			}
		</style>

		<filter id="drop-shadow-1" filterUnits="userSpaceOnUse">
		  <feOffset in="SourceAlpha" dx="0" dy="0"/>
		  <feGaussianBlur result="dropShadow" stdDeviation="2.236"/>
		  <feFlood flood-color="#000000" flood-opacity="0.7"/>
		  <feComposite operator="in" in2="dropShadow"/>
		  <feComposite in="SourceGraphic" result="dropShadow"/>
		</filter>
	</defs>
	<title>MJKTECH Logo</title>
	<g id="Layer_1-2" data-name="Layer 1"><g id="m"><circle class="cls-1" cx="290.3" cy="290.66" r="221.4"/><rect class="cls-1" x="109.2" y="199.64" width="392.4" height="392.4" transform="translate(-205.65 226.24) rotate(-45)"/><circle class="cls-2" cx="290.3" cy="290.66" r="9.2"/></g><g id="f"><g id="swe"><path class="cls-1" d="M370.1,331.7a91.39,91.39,0,1,1-129.2,0A91.44,91.44,0,0,1,370.1,331.7Z" transform="translate(-15.2 -105.64)"/><path class="cls-1" d="M498.4,331.7a91.39,91.39,0,1,1-129.2,0A91.44,91.44,0,0,1,498.4,331.7Z" transform="translate(-15.2 -105.64)"/><path class="cls-1" d="M241.8,331.7a91.39,91.39,0,1,1-129.2,0A91.44,91.44,0,0,1,241.8,331.7Z" transform="translate(-15.2 -105.64)"/><path class="cls-1" d="M370.1,203.4a91.39,91.39,0,1,1-129.2,0A91.44,91.44,0,0,1,370.1,203.4Z" transform="translate(-15.2 -105.64)"/><path class="cls-1" d="M370.1,459.9a91.39,91.39,0,1,1-129.2,0A91.44,91.44,0,0,1,370.1,459.9Z" transform="translate(-15.2 -105.64)"/></g></g></g>
</svg>