<svg version="1" xmlns="http://www.w3.org/2000/svg" width="3225.333" height="3225.333" viewBox="0 0 2419.000000 2419.000000"><path d="M1059.9 149.3C942.7 266.5 909.7 299 907 299.8c-10.6 3.1-58.5 21-67.5 25.2-1.1.5-7.6 3.4-14.5 6.3-57.6 24.9-121.9 61.4-173.4 98.4-17.5 12.6-46.6 35-48.6 37.3-.3.3-2.3 1.9-4.5 3.5-2.2 1.7-4.2 3.3-4.5 3.6-.3.3-2.7 2.5-5.5 4.9-9.6 8.2-18 15.5-23.5 20.6-3 2.8-7.2 6.6-9.4 8.5-5 4.4-40.3 39.6-48.1 48-15.5 16.7-36.2 40.7-50.6 58.9-15.9 20-42.9 57.1-42.9 58.9 0 .5-.3 1.1-.7 1.3-.9.3-13.6 19.4-18.8 28-22.3 37.1-31.7 53.9-46 82.8-6.5 13-10.2 20.9-19 40.4-5.9 13.1-22.8 55.9-24 60.6-.3.8-2.4 7-4.7 13.6l-4.3 12.2-148.3 148.3L-.1 1209.4l147.5 147.5L295 1504.5l2.4 7.5c8.3 25.7 23.2 64.4 35.3 91 16.2 35.9 31.3 65 50.8 98 8.6 14.5 23.1 37.3 33.5 52.3 9 13.2 29.5 41.5 30.9 42.7.3.3 2.8 3.4 5.6 7 5.3 7 26.9 33.2 32 39 18.3 20.4 26.8 29.4 44.4 47 29.6 29.6 42.9 41.7 72.4 65.9 12.1 10 30.8 24.3 45.2 34.8 13.4 9.6 42.1 29.3 42.9 29.3.4 0 2.8 1.5 5.4 3.2 2.6 1.8 5.7 3.8 6.7 4.5 5.7 3.5 32.7 19.4 37 21.8 2.8 1.6 8.2 4.6 12 6.7 8.5 4.7 49.5 25.2 58.5 29.2 3.6 1.6 9.2 4.1 12.5 5.6 22.5 10.2 77.7 31.3 87.5 33.5.8.2 2.6.8 4 1.3 1.4.6 68.2 66.8 148.5 147.1 80.3 80.4 146.3 146.1 146.7 146.1.3 0 66.3-65.7 146.6-146l146-146 14.8-5.1c58.3-20 115.4-45.5 163.4-72.9 8-4.6 15.9-9.1 17.5-10 5.2-2.9 13.8-8.2 19-11.5 57.8-37.5 91-62.5 134-100.9 16.7-14.9 46.1-43.7 59.5-58.2 23.8-25.9 46.7-52.8 60.2-70.9.4-.6 2.4-3 4.3-5.5s3.9-5 4.3-5.5c15.2-19.9 56.6-82.8 61.5-93.5.4-.8 1.7-3.1 2.8-5 14.8-24.5 40.3-76.5 54.6-111.4 7.5-18.4 22.7-59.5 23.8-64.6.2-.8.8-2.8 1.4-4.4.7-1.6 65.4-67.1 148.1-149.8 80.9-80.9 147-147.3 147-147.6 0-.4-66.8-67.5-148.5-149.2-81.7-81.7-148.5-149-148.5-149.7 0-2.6-20.1-56.6-25.8-69.3-1.1-2.5-3.9-9-6.2-14.5-8.3-19.4-27.3-58.3-35.4-72.3-2-3.5-3.6-6.5-3.6-6.7 0-.5-10.8-19.3-18.4-32-6.5-10.7-33-51.4-35.8-55-.4-.6-4-5.5-8-11s-7.5-10.2-7.8-10.5c-.3-.3-1.6-2.1-3-4-3-4.3-1.6-2.5-16.6-21.5-7-8.8-13-16.2-13.3-16.5-.3-.3-3.8-4.3-7.7-9-3.9-4.7-8.4-9.9-10-11.7-1.6-1.7-6.5-7.1-10.8-12-11-12.1-52.9-53.9-65.1-64.8-19-17-36.3-31.7-46.5-39.5-2.5-1.9-4.7-3.7-5-4-.3-.3-8.1-6.3-17.5-13.2-9.3-7-18.1-13.5-19.5-14.6-4.1-3.1-31.1-21.2-31.5-21.2-.3 0-2.6-1.5-5.2-3.4-6.8-4.8-29.8-18.7-50.3-30.3-19.7-11.1-80-41.3-82.7-41.3-.2 0-2.4-.9-4.9-2-2.4-1.1-6.3-2.9-8.6-3.9-10.5-4.7-44.9-17.7-62.3-23.6l-11-3.7-149.6-149.4L1209.4-.1l-149.5 149.4zm228.8 36.2l78.5 78.5-4.8-.5c-2.6-.4-5-.8-5.3-1-.3-.1-3.5-.6-7.1-1-3.6-.4-6.7-.9-7-1-.3-.2-3.7-.7-7.5-1-3.8-.4-7.6-.8-8.5-1-.8-.1-4.4-.6-8-.9-6.3-.7-9.9-1.1-17.7-2.1-2.1-.2-8.1-.7-13.3-1-5.2-.4-10.7-.8-12.2-1-20.1-2.4-106-2.5-131.8 0-1.9.2-8 .6-13.5 1s-11.3.9-13 1.1c-1.6.1-5.7.5-9 .8-3.3.3-7.6.8-9.5 1.1-1.9.3-5.5.7-8 1-8.7 1-11.6 1.4-22.5 3-6 .9-12.3 1.9-14 2.1-2.5.3 10.5-13.1 75.5-78.1 43.2-43.2 78.9-78.5 79.3-78.5.5 0 36.2 35.3 79.4 78.5zM1238 334.3c1.9.3 6.2.8 9.5 1.2 11.6 1.3 13 1.5 26.9 4.1 2.7.5 14.2 3 17.8 3.8 14.7 3.6 40.3 12.2 52.3 17.6 34.7 15.5 61.2 32.1 88.5 55.6 20 17.2 42.1 41.3 55 59.9 1.4 2 3 4.2 3.5 4.8 1.5 1.7 13.5 21.1 17.2 27.7 6.6 11.9 8.1 14.9 12.7 25 23.4 51.5 33.8 108.3 30.2 164.5-.4 6-.9 12.1-1.1 13.5-.2 1.4-.6 5-.9 8-.4 3-.9 6.6-1.1 8-.3 1.4-.7 4.1-1 6-1.2 7.7-7.7 35.6-8.8 37.5-.6 1.1-1 2.2-.9 2.5.4 1.4-7.5 24.7-11.3 33.5-.8 1.6-2.3 5.2-3.5 8-6.7 15.2-15.5 31.6-24.8 46-11.2 17.4-19 27.4-21.5 27.5-.4 0-4-2.6-8-5.8-45.5-36.3-99.6-63.1-156.2-77.3-4.4-1.2-9.1-2.3-10.5-2.5-1.4-.3-3.2-.7-4-.9-.8-.2-3.1-.7-5-1-1.9-.3-5.1-1-7-1.5-1.9-.5-6-1.2-9-1.5-3-.4-5.7-.8-6-1-.3-.2-3.2-.6-6.5-1-3.3-.3-7.3-.8-9-1-19.7-2.7-77-2.7-93.7 0-1.3.2-4.5.6-7.3 1-11 1.3-26.1 3.9-35.5 6.1-3.6.9-7.2 1.7-8 1.9-11.1 2.4-43.5 12.4-47.2 14.5-1 .6-2.2 1-2.8 1-1.6 0-28.1 11.5-38.5 16.7-23.8 12-48.1 27.3-68.5 43.2-6.3 5-11.8 9.1-12.2 9.1-1.3 0-8.2-7.4-11.3-12.2-.5-.9-4-6-7.7-11.5-11.8-17.5-24.7-41.7-31.2-58.8-1.5-3.9-3.1-7.9-3.7-9-3.3-7.2-12.7-40.1-15.4-54-.7-4-3.2-20-3.9-25-2.6-19-2.7-65.1-.2-80.5.2-1.4.7-4.8 1.1-7.5.4-2.8.9-5.9 1.1-7 6.6-45.2 25.5-94.7 51.1-133.9 5.7-8.8 19.7-28.2 21.2-29.6.4-.3 3.1-3.4 6.1-7 6.6-7.9 29.5-30.8 36.9-37 3-2.5 6.8-5.7 8.5-7.1 19-15.8 48.1-33.6 75-45.8 22.6-10.2 58.1-21.2 80-24.7 2.1-.3 4.7-.7 5.8-.9 1.1-.3 4.6-.7 7.7-1.1 3.1-.3 6.5-.8 7.5-1 1.1-.2 6-.6 11-1 5-.3 9.2-.7 9.4-.9.5-.4 43.4.3 47.2.8zm428.8 119.2c.9.6 3.1 1.9 4.7 2.9 1.7 1.1 5.3 3.4 8 5.1 46 29.1 83.5 57.6 125 95 19.2 17.3 53 51.7 71.1 72.5 2.1 2.5 4.5 5.1 5.2 5.8 8.2 8.8 35.7 44.1 49.2 63.2 6 8.5 11.3 15.9 11.8 16.5 2.7 3.3 30.5 47.5 29.9 47.5-.1 0-70.6-70.4-156.7-156.5s-155-155.8-153.2-154.8c1.9 1 4.1 2.3 5 2.8zM602.5 606.7c-116.7 116.7-155 154.5-153 150.8 8.8-15.8 34.9-54.8 50.9-76 7.9-10.4 23.9-30.9 24.6-31.5.4-.3 4.4-5 9-10.5s8.6-10.2 8.9-10.5c.3-.3 3.8-4.1 7.6-8.5 16.2-18.4 46.2-48.5 67.5-67.6 30.7-27.6 65-54.2 100.1-77.7 18.3-12.3 39.2-25.2 39.8-24.6.2.2-69.7 70.4-155.4 156.1zM843 474.9c-4.5 7.7-15.4 30.5-20.4 42.7-7.1 17.3-16.5 46.6-19.1 59.4-.2.8-1 4.2-1.9 7.5-.8 3.3-1.8 7.6-2.1 9.5-.3 1.9-1 5.7-1.5 8.5-1.3 6.6-1.8 10.1-2.5 15.5-.2 2.5-.7 6.1-1 8-.2 1.9-.6 5.1-.9 7-3.2 24.5-2.7 70.2.9 97 .3 1.9.7 5.3 1 7.5.3 2.2.7 5.1 1 6.5.2 1.3.7 4.2 1 6.5.3 2.2.8 4.8 1.1 5.8.4 1.1.7 2.9.9 4 1.1 8.2 9.5 39.6 13.9 51.6.9 2.4 1.5 4.5 1.3 4.7-.1.2-4.6-1.2-10-3-5.3-1.9-9.7-3.2-9.7-3 0 .2-1.8-.3-4.1-1.1-8.7-3.1-34.1-8.8-50.4-11.4-11.6-1.8-13.7-2.1-20.5-2.7-3.6-.3-9.2-.9-12.5-1.4-6.4-.8-66.5-.6-70.2.3-1.2.3-5.7.8-9.9 1.2-4.2.3-8 .7-8.3.9-.3.2-2.8.7-5.6 1-10.3 1.4-12.3 1.8-24 4.2-40.3 8.6-82.3 23.9-112.7 41-3.3 1.9-6.3 3.4-6.6 3.4-.4 0 83.9-84.6 187.3-188s188.1-188 188.2-188c.1 0-1.1 2.2-2.7 4.9zm1105.5 370.9c-.1.1-4.7-2.1-10.1-5-33.4-17.9-78.2-33.6-114.9-40.2-1.6-.3-4.1-.8-5.5-1.1-1.3-.2-4-.7-6-1-2-.3-4.5-.7-5.5-.9-4-.7-15.2-2-29-3.3-10.4-1-59.7-1-70 0-14.3 1.4-20.1 2.2-29.5 3.7-3 .6-7.3 1.2-9.5 1.5-2.2.3-4.6.8-5.4 1.1-.8.2-3 .7-5 1-8.4 1.3-44.4 11.4-53.3 14.9-1.3.5-.9-1.7 2.4-11.7 2.2-6.8 4.1-13 4.3-13.8.2-.8.9-3.5 1.6-6 1.5-5.3 1.2-4.1 3.9-16 2.4-10.5 3.5-16.5 4.4-22.5.4-2.3.9-5.2 1.1-6.5.3-1.4.8-4.3 1-6.5.2-2.2.7-6.3 1-9 .3-2.8.8-6.6 1-8.5 2.2-18.9 2.2-61.5 0-80.3-.3-2.3-.8-6.5-1.1-9.2-.5-4.7-4.7-30.1-5.8-35.5-.3-1.4-.8-3.6-1.1-5-.3-1.4-.7-3.5-1-4.7-2.5-13.6-13.3-46.9-21.2-65.8-5.7-13.3-17-36.8-19.8-40.8-.8-1.2-1.5-2.5-1.5-3s84.3 83.4 187.4 186.5c103 103 187.3 187.4 187.1 187.6zM708.9 869.4c53 6.6 96.8 20.8 138.1 45 12.1 7 31.7 20.4 36.2 24.6 4.1 4 4.5 5.1 2.6 7.2-1.4 1.5-5.1 6.2-12.4 15.8-4.6 6.1-19.4 27.9-19.4 28.6 0 .2-1.5 2.7-3.3 5.6-11.3 17.7-26.1 49.2-35.1 74.3-7.5 21.1-16.5 56.4-19.1 75-.3 2.3-.7 5-.9 6-.2 1.1-.7 4.9-1.1 8.5-.4 3.6-.9 7.6-1.1 9-2.4 20.2-2.4 73.6.1 86.8.1.9.6 4.8.9 8.7.4 3.8.9 7.7 1.1 8.5.2.8.7 3.5 1 6 .4 2.5 1.1 6.7 1.7 9.5.5 2.7 1.2 6.3 1.5 8 1.3 8 8.8 35.4 13.3 48.7 10.1 29.9 24.2 59.6 41.3 87.3 3.1 5 16.3 24.4 19 28 1.7 2.2 5.5 7 8.4 10.6 2.9 3.6 5.3 6.9 5.3 7.3 0 1.9-10.7 10.9-21 17.7-44.3 29.2-84.7 45.1-138.1 54.3-1.5.2-5.3.8-8.5 1.1-3.3.4-6.7.9-7.6 1.1-12.4 2.2-59.6 2.2-73.8 0-1.4-.3-5.2-.7-8.5-1.1-3.2-.4-6.8-.9-8-1.1-1.1-.2-4.5-.8-7.5-1.3-64.2-11-128.4-43.7-176.5-90-32.8-31.6-57.6-66.8-76.5-108.6-10.6-23.2-20.6-56.2-24.5-80.6-3.5-22.2-4.7-36.6-4.8-56.7 0-11.6 1-31.9 1.8-36 .1-.9.6-4.6 1-8.2.4-3.6.9-7.4 1.1-8.5.2-1.1.7-4 1-6.5.3-2.5.8-5.4 1.1-6.5.2-1.1 1.1-4.9 1.8-8.5.8-3.6 1.7-7.6 1.9-9 1.1-4.8 7.6-26.5 9.7-32 1.1-3 2.2-6.2 2.4-7 .4-1.7 2.8-7.7 5.1-12.7.8-1.7 1.4-3.4 1.4-3.8 0-1 15.9-32.8 17.3-34.5.7-.8 2.1-3.1 3.1-5 9.5-17.3 30.7-44.9 49-63.8 12.6-13 35.5-32.3 52.1-43.8 6.3-4.3 12.5-8.4 12.8-8.4.3 0 4.4-2.4 9.3-5.3 8.3-4.9 22.5-12.1 35.4-17.9 28.6-12.9 73.5-24.3 105-26.5 4.1-.3 7.7-.7 7.9-.9.5-.5 52.5.4 57 1zm538.6.5c13.2 1.9 14.9 2.2 18.5 2.7 1.9.3 7.8 1.5 13 2.6 13.2 2.7 13 2.6 15 3.3 1 .3 2.7.8 3.8 1 10 1.9 43.1 14.1 59.1 21.8 19.5 9.4 44.5 24.6 59.8 36.5l6.2 4.9-2.1 2.9c-3.5 5-24.6 19.6-43.6 30.4-14.8 8.3-46.6 22.8-53.7 24.5-.5.1-1.7.5-2.5.8-6.4 2.5-32.1 9.6-41 11.3-1.4.2-4.7.9-7.5 1.4-2.7.6-6.1 1.2-7.5 1.5-1.4.3-4.9.8-7.9 1.1-3 .3-6.2.7-7.2.9-13 2.5-72.4 2.6-80.1.1-.7-.3-3.5-.7-6.3-.9-6.7-.7-22.7-3.5-29.5-5.2-3-.8-6.6-1.6-8-1.8-14.7-2.6-53.5-17.3-74.5-28.3-22.4-11.7-48.7-29.2-53.4-35.5l-2.4-3.2 2.9-2.4c21-16.9 57-37.7 82.9-47.8 18.4-7.2 41-14.1 56.5-17.1 1.4-.3 3.2-.7 4-.9.8-.3 3.3-.7 5.5-1 2.2-.4 4.7-.8 5.5-1 .8-.2 3.8-.7 6.5-1 2.8-.3 5.9-.8 7-1 1.1-.2 5.8-.7 10.5-1.1 4.7-.3 8.7-.8 8.9-1 .9-.8 54.4.5 61.6 1.5zm528.9-.5c1.6.2 5.9.7 9.4 1.1 3.6.3 6.8.8 7.1.9.3.2 3 .7 6 1 2.9.4 5.6.8 6 1 .3.2 2.2.7 4.1 1 9.2 1.4 19.2 3.8 33.5 8.1 81.3 24.2 151.5 78.9 195.7 152.5 16.9 28.1 25.3 48 37.8 89.5 1.8 6.2 6.3 29 7.6 39 .3 2.2.7 5.1 1 6.5 1.1 7.4 1.9 22.7 1.9 40.5 0 23.2-.9 35.5-3.6 52.5-.6 3.6-1.2 7.4-1.4 8.5-3.2 20.3-12.6 52.2-22.1 74.5-5.3 12.3-18.1 37.3-22.4 43.5-1.7 2.4-3 4.6-3 5 0 2-23.5 33.5-32.5 43.4-7.2 8-26.8 27.5-33.4 33.1-13 11.2-36.1 28.1-46.8 34.1-17.3 9.9-26 14.4-36.1 18.9-6.4 2.8-12.6 5.6-13.7 6.1-5.2 2.3-36.1 12.4-40.7 13.3-1.2.2-6.1 1.3-10.8 2.5-12.7 3-18.5 4-31.5 5.6-2.7.4-5.7.8-6.5 1-3.3.8-24.4 1.8-38 1.8-47.6-.1-90.2-8.7-134-27-28.2-11.8-66.1-34.6-76.1-45.8-2.6-2.8-2.6-3.1-1.1-5.1 17.7-22.9 29.1-39.4 37.9-54.7 7.5-12.9 25.4-49.3 25.9-52.7 0-.3.4-1.4.9-2.5 2.6-6.4 9.4-25.2 10-27.5.2-.8 1.3-4.4 2.4-8 6-19.3 12.9-52.9 14.6-71 .2-1.9.6-6.4 1-10 1.3-13.6 1.6-19.1 1.6-38.5 0-18.9-.4-29.2-1.6-39.8-.3-2.6-.7-6.8-1-9.5-.8-7.2-1.5-11.9-3.1-21.2-2.1-12.7-2.4-14.2-3.4-18-.5-1.9-1.2-4.9-1.4-6.5-.3-1.7-1.9-8-3.6-14-1.7-6.1-3.2-11.8-3.5-12.8-.2-.9-2-6.4-3.9-12.1-16.2-48-42.2-94.8-73.2-131.9-1.4-1.7-1.4-2.1.3-4 6.6-7.7 34.9-26 58.3-37.7 13.3-6.7 40.5-18 43.3-18 .7 0 1.7-.3 2.1-.8.4-.4 1.1-.7 1.4-.7.4-.1 3.9-1 7.7-2.2 8.4-2.6 25.9-6.8 36.5-8.8 1.4-.3 3.6-.7 5-1 1.4-.2 5.2-.7 8.5-1.1 3.3-.3 6.3-.8 6.6-1 .3-.2 4.8-.6 10-1s9.6-.8 9.8-1c.5-.5 51.1.4 54.5 1zm-830.1 132.9c3.7 3.8 20.7 27.7 20.7 29.1 0 .3 1.5 2.9 3.4 5.8 16.7 26.3 35.9 76.9 41.2 108.8.1.8.7 4.1 1.3 7.3.5 3.2 1.3 8.4 1.7 11.5.3 3.1.8 6.6 1 7.7 2.4 11.4 2.3 63.6 0 77.5-.3 1.4-.7 4.7-1.1 7.5-3.3 27.5-13.2 63.1-25.3 91-4 9.2-16.4 33.3-20.7 40C955 1410 944.1 1424 941 1424c-.5 0-3.6-3.5-6.7-7.7-3.2-4.3-6.2-8.2-6.6-8.8-9.5-12.2-27.2-44.7-36-66-8.2-20.2-18.1-53.6-20.1-68.5-.3-2.5-.8-5.6-1.1-7-.3-1.4-.8-4.5-1.1-7-.3-2.5-.7-5.6-.9-7-1.9-10.8-2.6-47.1-1.2-65 .8-11.1 2.3-24.4 3.7-31.5.5-2.8 1.2-6.6 1.5-8.5.3-1.9.8-4.2 1-5 .2-.8.6-2.7.9-4.2 1.5-9 10.9-40.6 14.5-49.3 7.7-18 10-23.3 13.6-30.5 6.8-13.7 13.8-26 20.8-36.5 6.8-10.1 17-23.5 17.9-23.5.5 0 2.8 1.9 5.1 4.3zm540.3 7c19.7 27.1 35.4 56.8 46 87 2 5.6 3.7 10.6 3.8 11.2.2.5.8 3 1.5 5.5s1.2 4.5 1 4.5c-.1 0 .3.9.9 2.1.6 1.1 1.3 3.2 1.6 4.5.2 1.3 1 4.6 1.6 7.4.6 2.7 1.4 6.1 1.6 7.5.3 1.4.9 4.1 1.4 6 .4 1.9 1.2 5.7 1.6 8.5.4 2.7.8 5.2.9 5.5.1.3.5 3.6.9 7.5.4 3.8.9 8.1 1.2 9.4 2.5 16.3 2 57.9-1.1 78.6-.2 1.6-.7 5.2-1.1 8-.8 6.7-5 27.3-7.5 36.5-10.7 39.8-27.9 76.7-51.1 109.5-12 17-11.2 16.2-13.9 14.2-5.6-3.9-8.3-7.2-17.6-21.2-11.7-17.7-21.2-35.3-30.7-56.7-3.9-8.8-14-37.8-15-43.3-.2-1.1-1.1-4.7-1.9-8-4-15.4-7.5-37.3-9.3-58-.4-5.1-.4-39.9 0-44.5.2-1.9.7-7.1 1-11.5.4-4.4.9-8.9 1.1-10 .3-1.1.7-4 1-6.5.2-2.5.7-5.6 1-7 .2-1.3.7-4.2 1.1-6.4.3-2.2.7-4.3.9-4.6.2-.3.6-2.3.9-4.5.9-5.4 7-28.6 9.6-36 1.1-3.3 2.2-6.7 2.4-7.6 1-4.1 11.5-28.7 16.8-39.3 13-26 35.6-59.7 40.1-59.6.7 0 4.9 5.1 9.3 11.3zm-1225.1 48.4c-.3 2.1-.7 4.9-1 6.3-.2 1.4-.9 6.1-1.5 10.5s-1.3 9.1-1.5 10.5c-.2 1.4-.6 5.2-1 8.5-.3 3.3-.8 7.1-1 8.5-.2 1.4-.6 5.6-1 9.5-.4 3.8-.8 8.3-1 10-.2 1.6-.7 6.6-1 11-.4 4.4-.8 10-1 12.5-2.4 30.6-2.4 104.4 0 131 .3 3.9 1 12.5 2 25 .4 4.6 1.5 15.8 2 19 .2 1.4.7 5.4 1 9 .4 3.6.9 7.3 1.1 8.4.2 1 .6 4.4 1 7.5.3 3.1.8 6.5 1 7.6.2 1.1.7 4.2 1 7l.7 5-77-77c-42.3-42.4-77.1-77.4-77.3-77.9-.2-.7 153.8-155.6 154.8-155.6.2 0 .1 1.7-.3 3.7zm1973.1 229.1c-82.6 82.6-78.1 78.6-76.1 68.2.3-1.4.7-4.5 1-7 .3-2.5.7-5.4.9-6.5.2-1.1.7-4.9 1.1-8.5.3-3.6.8-7.2 1-8 .2-.8.7-5.1 1-9.5.4-4.4.8-8.2 1-8.5.1-.3.6-4.8 1-10s.8-11.1 1-13c.4-4.5 1.7-27 2.1-38 .4-10.6.4-65.7-.1-72.5-.1-2.8-.6-10.9-.9-18-.4-7.2-.8-15-1.1-17.5-1.4-15.7-1.7-18.9-2-22-.7-7.7-1.7-17.5-2-19-.1-.8-.6-4.4-1-8-.4-3.6-.9-7.2-1-8.1-.2-.9-.6-4-1-6.9-.4-2.9-.9-6.2-1.1-7.4-.2-1.2-.7-4.6-1.1-7.6l-.6-5.5 77.8 77.8 77.8 77.9-77.7 77.6zm-1159-213.8c5.2 1.8 20.2 6.2 30.4 9 4.9 1.3 20.9 4.9 24.5 5.5 9.4 1.6 16.4 2.7 19.5 3.1 1.9.2 5.1.6 7 .9 22.6 3.5 84.5 4.1 97 1 .8-.2 4.7-.6 8.5-1 3.9-.3 7.7-.8 8.5-1 .8-.2 3.3-.7 5.5-1 3.3-.4 26.3-5.1 34.7-7 4.5-1 18.4-5.1 27.7-8.1 5.7-1.9 10.6-3.2 10.8-3 .2.2-.1 1.4-.6 2.7-1.1 2.9-2.3 6-2.7 7.4-6.2 20.8-8.5 29.6-11.4 43.2-1.6 7.6-3.1 15.8-3.5 18.3-.3 2.5-.8 5.2-1 6-.2.8-.7 4.4-1 8-.4 3.6-.8 7.2-1 8.1-.3 1.6-1.2 12.5-2 23.9-1 14.1-.5 47.9 1 61.5.2 2.2.7 6.7 1 10 .6 5.8 2.3 16.8 4.4 28.5 2.7 15.2 7.3 33.3 12.7 50.1 1.9 5.8 3.4 10.9 3.4 11.2 0 .3-3.3-.5-7.2-1.9-16.3-5.6-46.2-12.9-64.3-15.9-8.8-1.4-18.8-2.6-33-4.2-15.1-1.6-68.9-.8-82.5 1.2-1.4.2-5 .6-8 1-8.3.9-28.8 4.6-39.2 7.1-1 .2-2.7.6-3.8.8-10.2 2.3-36 10-39.3 11.8-1.1.5-2.1.8-2.3.5-.2-.2 1-4.4 2.7-9.3 7.1-20.9 15.1-57.2 17.4-78.9.4-3.3.8-7.1 1.1-8.5 3.2-20 2.1-77.9-2-102.5-.2-1.1-.7-4-1.1-6.5-.4-2.5-.9-5.4-1.1-6.5-.2-1.1-.9-4.9-1.5-8.4-.5-3.6-1.2-6.7-1.4-7.1-.2-.4-.7-2.2-1-4.1-.9-5.3-8.2-31.6-11-39.8-1.4-4.1-2.5-7.6-2.5-7.8 0-.5.4-.4 6.6 1.7zm166.4 330.3c2.8.6 8.8 1.4 16.5 2.3 2.8.3 10.6 1.6 17.5 3 44.9 8.9 84.8 25.4 123.2 50.8 12.5 8.3 18.7 13.3 21.8 17.6l2 2.8-9.2 7c-7.8 5.8-18.3 12.9-29.5 19.8-1.2.7-5.2 3-9 5-3.7 2.1-8.1 4.5-9.8 5.4-6.1 3.4-28.7 13.2-39.2 16.9-25.4 9.1-49.2 14.7-78.8 18.5-18 2.4-62.3 2.5-75.5.2-1.4-.3-4.7-.7-7.5-1.1-9.5-1.1-28.2-4.6-36-6.6-2.2-.6-4.7-1.3-5.5-1.4-3.5-.8-13.1-3.6-20.5-6-32.5-10.8-64.2-26.8-90.9-45.9-5.4-3.9-11.1-8-12.7-9.1-1.6-1.1-2.9-2.5-2.8-3 0-1.5 6-7.9 10.4-11.1 2.2-1.6 4.2-3.1 4.5-3.4.8-.8 13.9-9.4 21.5-14 28-17.2 63.6-31.7 98-40 7.2-1.7 22.2-4.5 30-5.6 1.7-.2 4.4-.7 6-.9 1.7-.3 6.8-.8 11.5-1.1 4.7-.3 8.7-.8 8.9-1 .6-.5 52.2.3 55.1.9zm-276.5 147.8c31.8 22.8 66.9 41.2 103 54.1 11 3.9 32.8 10.5 37.5 11.4 1.4.3 5 1.2 8.2 2 3.1.8 9.1 2.1 13.5 2.9 4.3.8 9.2 1.7 10.8 2 10.2 1.9 29.2 4.1 44 5.2 17.8 1.2 55.5.6 69.5-1.2 1.9-.2 5.8-.7 8.5-1 2.8-.4 6.1-.8 7.5-1 1.4-.2 4.3-.7 6.5-.9 5.7-.7 23.8-4.4 31-6.2 3.3-.9 6.9-1.8 8-2 4.7-.9 30.8-9 40-12.4 20.1-7.5 50.6-21.6 61.6-28.5 2.1-1.4 4.1-2.5 4.4-2.5.4 0 2.6-1.4 5-3 2.4-1.7 4.6-3 4.9-3 .4 0 7.5-4.7 22.7-15.2 4.3-2.9 20.8-15.7 22.8-17.6 3.1-3 12.1 7.8 27.4 32.8 14 22.8 27.2 51.8 34.1 75 1.6 5.2 3.1 10.2 3.4 11 .7 2.2 3.9 15 4.8 19.5 3 15.1 4 20.9 4.9 28.5.3 2.5.7 6.3 1 8.5 2.2 17.9 2.2 55.8 0 70.5-.2 1.4-.6 5.2-1 8.5-3 29.6-14.3 69-28.5 100.1-2.2 4.6-4 8.6-4 8.9 0 .2-1.6 3.2-3.5 6.6-1.9 3.3-3.5 6.3-3.5 6.5 0 .2-2.5 4.5-5.6 9.6-34.9 57.9-82.6 102.4-141.7 132-12.3 6.2-33.7 15.5-37.7 16.3-.8.2-1.5.4-1.5.5 0 .1-.7.3-1.5.5s-4.2 1.4-7.5 2.5c-10.8 3.8-34.2 9.5-47.1 11.6-2 .3-4.5.7-5.6.9-1.1.3-4.6.7-7.7 1.1-3.1.3-6.5.8-7.6 1-11.8 2.2-59 2.2-74.5-.1-1.4-.2-4.7-.6-7.5-1-11.3-1.3-27.6-4.5-41.5-8-10.2-2.6-32.6-9.7-37.5-11.9-1.6-.8-6.6-2.9-11-4.7-6.8-2.8-26.4-12.4-34.5-16.9-12.7-7.2-36.7-23.5-46.6-31.9-1.7-1.4-5.7-4.9-9-7.6-10.5-8.9-30.7-29.9-41-42.6-34.8-42.8-59.3-94.1-70-146.4-1-4.8-4.1-23.6-4.9-29.5-2.6-19.9-2.6-62.7.1-81 4-28.4 7.9-45.3 15.6-69 9.3-28.5 24.3-58.8 41.6-84 7.9-11.6 10.7-15 14-17.2 2.5-1.6 2.6-1.6 9.6 4.1 3.9 3.2 11.2 8.7 16.1 12.2zm975.5 29.2c0 .1-81.8 82-181.9 182.1l-181.8 181.8 6.2-12.3c14.7-29.5 27-64.3 33.4-94.4 1.2-5.5 2.6-11.8 3.1-14 .5-2.2 1.2-6.3 1.6-9 .3-2.8.8-5.2.9-5.5.2-.3.6-3.4 1-6.9.4-3.4.8-7 1-7.9.1-.9.6-5.5 1-10.2.4-4.7.9-10.1 1.1-12 .4-4.7.4-48.1 0-54.5-.4-5.5-1.4-16-2.1-21.5-.3-1.9-.7-5.5-1-8-.7-5.9-1.9-13.1-4.4-26-.6-3-1.3-6.5-1.5-7.7-1-5.1-7.8-29.6-10.6-38.2-1.6-5.2-2.8-9.6-2.6-9.8.2-.3 5.3 1.2 11.3 3.1 16.1 5.3 27.9 8.3 47.3 12 18.2 3.6 21.9 4.1 32.3 5.2 3.4.3 7.3.8 8.7 1 12.9 2.2 64.7 2.2 82.5-.1 2.2-.3 6-.7 8.5-1 8.7-1.1 18.5-2.5 20-3 .8-.2 3.2-.6 5.2-.9 10.6-1.6 41.3-9.4 53.4-13.7 3.2-1.1 6.6-2.2 7.5-2.4 6.5-1.4 54.3-22.5 59.7-26.3.1-.1.2-.1.2.1zm-1452.4 5.6c34.8 17.3 73.7 30.2 109.9 36.6 1.7.2 4 .7 5.1.9 3.4.7 8.2 1.4 17.4 2.6 4.7.6 10.1 1.3 12 1.5 5.8.8 30.8 1.9 43 1.9 30.6 0 57-2.9 90-9.8 11.4-2.5 25.1-6.3 38.8-10.8 5-1.7 9.4-2.9 9.7-2.6.3.3-.1 2-.9 3.9-1.5 3.5-8.2 26.3-9 30.2-.2 1.2-.7 2.9-1 3.7-.3.8-.7 2.6-1 4-.2 1.4-1.1 5.6-2 9.5-1.7 7.8-4.2 21.6-5.1 28.5-.3 2.5-.8 5.6-1 7-.5 3.3-1.3 11.6-2.2 21.5-1.7 20.6-.5 67.8 2.2 83.5.3 1.4.7 4.7 1 7.5.5 4.1 2.9 17.1 5 28 3.4 16.7 13.9 51.9 19.1 64 .7 1.6 3.4 7.9 5.9 14 2.6 6 6.9 15.4 9.6 20.7 2.7 5.4 4.6 9.8 4.3 9.8-.3 0-81.8-81.2-181.1-180.5S478 1581 478.3 1581c.3 0 4.9 2.2 10.3 4.9zm116.9 229.2c90.2 90.3 162.4 163.3 160.5 162.2-18.2-10.6-68.1-42.8-70-45.2-.3-.3-3.1-2.4-6.2-4.5-3.2-2.1-6.5-4.6-7.5-5.5-1-.9-4.5-3.6-7.8-6-6.2-4.6-23.2-17.8-25.1-19.6-.6-.5-3.3-2.8-6-5-25.7-21.2-64.4-58.1-86.1-82-4-4.4-8.6-9.6-10.4-11.5-5.3-5.9-27.1-32-34.5-41.5-19.8-25.2-44.6-61.2-62.2-90.3-5-8.3-9.1-15.2-8.9-15.2.1 0 74 73.9 164.2 164.1zm1368.7-158.9c-28.8 48.8-57.3 88.9-93.1 130.8-11.3 13.2-14.9 17.2-30.1 33.3-19.9 21-49.2 48.9-67 63.7-3 2.5-7 5.9-9 7.6-6.1 5.3-23.1 18.7-35.5 28.1-13.4 10-45.2 32.3-46.2 32.3-.4 0-1.4.6-2.2 1.4-.9.8-2.7 2.1-4.1 2.8-1.4.8-5.8 3.5-9.8 6.1-4 2.6-8.7 5.5-10.5 6.5-1.8 1-5 2.9-7.2 4.3s-5.6 3.4-7.5 4.4c-1.9 1 69.1-70.8 159.5-161.3 89.7-89.7 163.4-163.1 163.8-163.2.5 0 0 1.5-1.1 3.2zm-909.7 504.2c1.1.2 4.5.7 7.5 1.1 3 .3 6.6.8 8 1 1.4.2 5 .7 8 1 3 .3 6.6.8 8 1 2.9.4 11.4 1.4 18 2 15.8 1.5 19 1.7 23 2 2.5.2 9.7.6 16 1 6.3.4 14.7.8 18.5 1 8.9.4 67.2.4 74.5 0 34.8-1.8 50.5-3 73-5.6 4.7-.5 10.5-1.2 13-1.5 2.5-.3 5.6-.7 7-.9 1.4-.2 4.4-.7 6.7-1 2.3-.3 5.5-.8 7-1 10.5-1.6 15.1-6.8-66.9 75.2l-76.6 76.6-76.1-76c-41.9-41.9-76.1-76.4-76.1-76.8 0-.4 1.2-.4 2.8-.1 1.5.4 3.6.8 4.7 1z"/><path d="M1196.7 1132.1c-25.3 4-47.7 20.5-59.1 43.5-5.9 12.1-8.1 21.5-8 35.4 0 11.5.9 17.2 3.7 25.6 17.4 50.6 77.2 70.5 121.7 40.4 16.4-11.1 30.7-33.6 33.5-53 .7-4.9.7-24.8 0-26-.2-.3-.6-1.9-.9-3.4-.9-4.9-2.7-10.2-5.8-17.4-4.9-11.1-17.5-25.7-28.4-33-4.9-3.2-18.6-9.1-24.9-10.7-7.6-1.9-24.1-2.6-31.8-1.4z"/></svg>